<?xml version="1.0" encoding="UTF-8" standalone="no"?>
<!DOCTYPE svg PUBLIC "-//W3C//DTD SVG 1.1//EN"
 "http://www.w3.org/Graphics/SVG/1.1/DTD/svg11.dtd">
<!-- Generated by graphviz version 13.1.1 (0)
 -->
<!-- Title: snakemake_dag Pages: 1 -->
<svg width="258pt" height="549pt"
 viewBox="0.00 0.00 258.00 549.00" xmlns="http://www.w3.org/2000/svg" xmlns:xlink="http://www.w3.org/1999/xlink">
<g id="graph0" class="graph" transform="scale(1 1) rotate(0) translate(4 545)">
<title>snakemake_dag</title>
<polygon fill="white" stroke="none" points="-4,4 -4,-545 253.62,-545 253.62,4 -4,4"/>
<!-- 0 -->
<g id="node1" class="node">
<title>0</title>
<path fill="none" stroke="#d8cb56" stroke-width="2" d="M56,-36C56,-36 26,-36 26,-36 20,-36 14,-30 14,-24 14,-24 14,-12 14,-12 14,-6 20,0 26,0 26,0 56,0 56,0 62,0 68,-6 68,-12 68,-12 68,-24 68,-24 68,-30 62,-36 56,-36"/>
<text xml:space="preserve" text-anchor="middle" x="41" y="-15.62" font-family="sans" font-size="10.00">all</text>
</g>
<!-- 1 -->
<g id="node2" class="node">
<title>1</title>
<path fill="none" stroke="#5692d8" stroke-width="2" d="M70,-108C70,-108 12,-108 12,-108 6,-108 0,-102 0,-96 0,-96 0,-84 0,-84 0,-78 6,-72 12,-72 12,-72 70,-72 70,-72 76,-72 82,-78 82,-84 82,-84 82,-96 82,-96 82,-102 76,-108 70,-108"/>
<text xml:space="preserve" text-anchor="middle" x="41" y="-87.62" font-family="sans" font-size="10.00">plot_neb_path</text>
</g>
<!-- 1&#45;&gt;0 -->
<g id="edge1" class="edge">
<title>1&#45;&gt;0</title>
<path fill="none" stroke="grey" stroke-width="2" d="M41,-71.34C41,-64.75 41,-57.08 41,-49.67"/>
<polygon fill="grey" stroke="grey" stroke-width="2" points="44.5,-49.93 41,-39.93 37.5,-49.93 44.5,-49.93"/>
</g>
<!-- 2 -->
<g id="node3" class="node">
<title>2</title>
<path fill="none" stroke="#56d873" stroke-width="2" d="M56,-180C56,-180 26,-180 26,-180 20,-180 14,-174 14,-168 14,-168 14,-156 14,-156 14,-150 20,-144 26,-144 26,-144 56,-144 56,-144 62,-144 68,-150 68,-156 68,-156 68,-168 68,-168 68,-174 62,-180 56,-180"/>
<text xml:space="preserve" text-anchor="middle" x="41" y="-159.62" font-family="sans" font-size="10.00">do_neb</text>
</g>
<!-- 2&#45;&gt;1 -->
<g id="edge2" class="edge">
<title>2&#45;&gt;1</title>
<path fill="none" stroke="grey" stroke-width="2" d="M41,-143.34C41,-136.75 41,-129.08 41,-121.67"/>
<polygon fill="grey" stroke="grey" stroke-width="2" points="44.5,-121.93 41,-111.93 37.5,-121.93 44.5,-121.93"/>
</g>
<!-- 3 -->
<g id="node4" class="node">
<title>3</title>
<path fill="none" stroke="#d85656" stroke-width="2" d="M186.62,-252C186.62,-252 81.38,-252 81.38,-252 75.38,-252 69.38,-246 69.38,-240 69.38,-240 69.38,-228 69.38,-228 69.38,-222 75.38,-216 81.38,-216 81.38,-216 186.62,-216 186.62,-216 192.62,-216 198.62,-222 198.62,-228 198.62,-228 198.62,-240 198.62,-240 198.62,-246 192.62,-252 186.62,-252"/>
<text xml:space="preserve" text-anchor="middle" x="134" y="-231.62" font-family="sans" font-size="10.00">__ase_idpp_collect_paths</text>
</g>
<!-- 3&#45;&gt;2 -->
<g id="edge3" class="edge">
<title>3&#45;&gt;2</title>
<path fill="none" stroke="grey" stroke-width="2" d="M110.53,-215.34C99.82,-207.27 86.93,-197.57 75.17,-188.72"/>
<polygon fill="grey" stroke="grey" stroke-width="2" points="77.3,-185.94 67.2,-182.72 73.09,-191.53 77.3,-185.94"/>
</g>
<!-- 4 -->
<g id="node5" class="node">
<title>4</title>
<path fill="none" stroke="#d88d56" stroke-width="2" d="M201.5,-324C201.5,-324 50.5,-324 50.5,-324 44.5,-324 38.5,-318 38.5,-312 38.5,-312 38.5,-300 38.5,-300 38.5,-294 44.5,-288 50.5,-288 50.5,-288 201.5,-288 201.5,-288 207.5,-288 213.5,-294 213.5,-300 213.5,-300 213.5,-312 213.5,-312 213.5,-318 207.5,-324 201.5,-324"/>
<text xml:space="preserve" text-anchor="middle" x="126" y="-303.62" font-family="sans" font-size="10.00">__ase_idpp_generate_idpp_images</text>
</g>
<!-- 4&#45;&gt;2 -->
<g id="edge4" class="edge">
<title>4&#45;&gt;2</title>
<path fill="none" stroke="grey" stroke-width="2" d="M95.38,-287.1C82.59,-278.12 68.71,-266.14 60,-252 49.17,-234.42 44.44,-211.6 42.41,-193.46"/>
<polygon fill="grey" stroke="grey" stroke-width="2" points="45.92,-193.36 41.59,-183.69 38.94,-193.95 45.92,-193.36"/>
</g>
<!-- 4&#45;&gt;3 -->
<g id="edge6" class="edge">
<title>4&#45;&gt;3</title>
<path fill="none" stroke="grey" stroke-width="2" d="M128.02,-287.34C128.77,-280.75 129.65,-273.08 130.5,-265.67"/>
<polygon fill="grey" stroke="grey" stroke-width="2" points="133.95,-266.24 131.61,-255.91 127,-265.45 133.95,-266.24"/>
</g>
<!-- 5 -->
<g id="node6" class="node">
<title>5</title>
<path fill="none" stroke="#70d856" stroke-width="2" d="M120.75,-396.5C120.75,-396.5 43.25,-396.5 43.25,-396.5 37.25,-396.5 31.25,-390.5 31.25,-384.5 31.25,-384.5 31.25,-372 31.25,-372 31.25,-366 37.25,-360 43.25,-360 43.25,-360 120.75,-360 120.75,-360 126.75,-360 132.75,-366 132.75,-372 132.75,-372 132.75,-384.5 132.75,-384.5 132.75,-390.5 126.75,-396.5 120.75,-396.5"/>
<text xml:space="preserve" text-anchor="middle" x="82" y="-383" font-family="sans" font-size="10.00">do_minimization</text>
<text xml:space="preserve" text-anchor="middle" x="82" y="-368.75" font-family="sans" font-size="10.00">endpoint: reactant</text>
</g>
<!-- 5&#45;&gt;4 -->
<g id="edge7" class="edge">
<title>5&#45;&gt;4</title>
<path fill="none" stroke="grey" stroke-width="2" d="M93.33,-359.16C97.83,-351.97 103.12,-343.54 108.11,-335.56"/>
<polygon fill="grey" stroke="grey" stroke-width="2" points="110.91,-337.68 113.25,-327.35 104.98,-333.97 110.91,-337.68"/>
</g>
<!-- 6 -->
<g id="node7" class="node">
<title>6</title>
<path fill="none" stroke="#afd856" stroke-width="2" d="M122.25,-468.5C122.25,-468.5 41.75,-468.5 41.75,-468.5 35.75,-468.5 29.75,-462.5 29.75,-456.5 29.75,-456.5 29.75,-444.5 29.75,-444.5 29.75,-438.5 35.75,-432.5 41.75,-432.5 41.75,-432.5 122.25,-432.5 122.25,-432.5 128.25,-432.5 134.25,-438.5 134.25,-444.5 134.25,-444.5 134.25,-456.5 134.25,-456.5 134.25,-462.5 128.25,-468.5 122.25,-468.5"/>
<text xml:space="preserve" text-anchor="middle" x="82" y="-448.12" font-family="sans" font-size="10.00">convert_ckpt_to_pt</text>
</g>
<!-- 6&#45;&gt;2 -->
<g id="edge5" class="edge">
<title>6&#45;&gt;2</title>
<path fill="none" stroke="grey" stroke-width="2" d="M52.48,-431.53C40.68,-422.61 28.4,-410.69 22,-396.5 -8.5,-328.86 14.12,-239.05 29.64,-193.02"/>
<polygon fill="grey" stroke="grey" stroke-width="2" points="32.85,-194.44 32.86,-183.84 26.24,-192.11 32.85,-194.44"/>
</g>
<!-- 6&#45;&gt;5 -->
<g id="edge9" class="edge">
<title>6&#45;&gt;5</title>
<path fill="none" stroke="grey" stroke-width="2" d="M82,-431.77C82,-425.17 82,-417.46 82,-410.03"/>
<polygon fill="grey" stroke="grey" stroke-width="2" points="85.5,-410.24 82,-400.24 78.5,-410.24 85.5,-410.24"/>
</g>
<!-- 8 -->
<g id="node9" class="node">
<title>8</title>
<path fill="none" stroke="#70d856" stroke-width="2" d="M237.62,-396.5C237.62,-396.5 162.38,-396.5 162.38,-396.5 156.38,-396.5 150.38,-390.5 150.38,-384.5 150.38,-384.5 150.38,-372 150.38,-372 150.38,-366 156.38,-360 162.38,-360 162.38,-360 237.62,-360 237.62,-360 243.62,-360 249.62,-366 249.62,-372 249.62,-372 249.62,-384.5 249.62,-384.5 249.62,-390.5 243.62,-396.5 237.62,-396.5"/>
<text xml:space="preserve" text-anchor="middle" x="200" y="-383" font-family="sans" font-size="10.00">do_minimization</text>
<text xml:space="preserve" text-anchor="middle" x="200" y="-368.75" font-family="sans" font-size="10.00">endpoint: product</text>
</g>
<!-- 6&#45;&gt;8 -->
<g id="edge11" class="edge">
<title>6&#45;&gt;8</title>
<path fill="none" stroke="grey" stroke-width="2" d="M112.08,-431.59C126.26,-423.15 143.39,-412.95 158.76,-403.8"/>
<polygon fill="grey" stroke="grey" stroke-width="2" points="160.16,-407.04 166.96,-398.92 156.58,-401.03 160.16,-407.04"/>
</g>
<!-- 7 -->
<g id="node8" class="node">
<title>7</title>
<path fill="none" stroke="#56d8a9" stroke-width="2" d="M112.5,-541C112.5,-541 51.5,-541 51.5,-541 45.5,-541 39.5,-535 39.5,-529 39.5,-529 39.5,-516.5 39.5,-516.5 39.5,-510.5 45.5,-504.5 51.5,-504.5 51.5,-504.5 112.5,-504.5 112.5,-504.5 118.5,-504.5 124.5,-510.5 124.5,-516.5 124.5,-516.5 124.5,-529 124.5,-529 124.5,-535 118.5,-541 112.5,-541"/>
<text xml:space="preserve" text-anchor="middle" x="82" y="-527.5" font-family="sans" font-size="10.00">download_ckpt</text>
<text xml:space="preserve" text-anchor="middle" x="82" y="-513.25" font-family="sans" font-size="10.00">version: v1.1.0</text>
</g>
<!-- 7&#45;&gt;6 -->
<g id="edge10" class="edge">
<title>7&#45;&gt;6</title>
<path fill="none" stroke="grey" stroke-width="2" d="M82,-503.66C82,-497.14 82,-489.58 82,-482.27"/>
<polygon fill="grey" stroke="grey" stroke-width="2" points="85.5,-482.31 82,-472.31 78.5,-482.31 85.5,-482.31"/>
</g>
<!-- 8&#45;&gt;4 -->
<g id="edge8" class="edge">
<title>8&#45;&gt;4</title>
<path fill="none" stroke="grey" stroke-width="2" d="M180.94,-359.16C172.77,-351.4 163.05,-342.17 154.07,-333.65"/>
<polygon fill="grey" stroke="grey" stroke-width="2" points="156.59,-331.22 146.93,-326.87 151.77,-336.29 156.59,-331.22"/>
</g>
</g>
</svg>
