<?xml version="1.0" encoding="UTF-8" standalone="no"?>
<!DOCTYPE svg PUBLIC "-//W3C//DTD SVG 1.1//EN"
 "http://www.w3.org/Graphics/SVG/1.1/DTD/svg11.dtd">
<!-- Generated by graphviz version 13.1.1 (0)
 -->
<!-- Title: snakemake_dag Pages: 1 -->
<svg width="418pt" height="3348pt"
 viewBox="0.00 0.00 418.00 3348.00" xmlns="http://www.w3.org/2000/svg" xmlns:xlink="http://www.w3.org/1999/xlink">
<g id="graph0" class="graph" transform="scale(1 1) rotate(0) translate(4 3344)">
<title>snakemake_dag</title>
<polygon fill="white" stroke="none" points="-4,4 -4,-3344 413.5,-3344 413.5,4 -4,4"/>
<!-- 0 -->
<g id="node1" class="node">
<title>0</title>
<text xml:space="preserve" text-anchor="start" x="101.5" y="-88.4" font-family="sans" font-weight="bold" font-size="18.00">all</text>
<text xml:space="preserve" text-anchor="start" x="34" y="-59.7" font-family="sans" font-size="10.00"> </text>
<text xml:space="preserve" text-anchor="start" x="36.25" y="-59.7" font-family="sans" font-weight="bold" font-size="14.00">↪ input</text>
<text xml:space="preserve" text-anchor="start" x="91" y="-59.7" font-family="sans" font-size="10.00"> </text>
<text xml:space="preserve" text-anchor="start" x="34" y="-33" font-family="monospace" font-size="10.00">results/04_plots/roneb.png</text>
<text xml:space="preserve" text-anchor="start" x="185.5" y="-11.75" font-family="sans" font-size="10.00"> &#160;</text>
<polygon fill="#d9ca57" stroke="#d9ca57" points="28,-76 28,-76 197,-76 197,-76 28,-76"/>
<polygon fill="#d9ca57" stroke="#d9ca57" points="28,-25.25 28,-25.25 197,-25.25 197,-25.25 28,-25.25"/>
<polygon fill="none" stroke="#d9ca57" stroke-width="2" points="28,-1 28,-110.5 196,-110.5 196,-1 28,-1"/>
</g>
<!-- 1 -->
<g id="node2" class="node">
<title>1</title>
<text xml:space="preserve" text-anchor="start" x="49.38" y="-857.4" font-family="sans" font-weight="bold" font-size="18.00">plot_neb_path</text>
<text xml:space="preserve" text-anchor="start" x="34" y="-828.7" font-family="sans" font-size="10.00"> </text>
<text xml:space="preserve" text-anchor="start" x="36.25" y="-828.7" font-family="sans" font-weight="bold" font-size="14.00">↪ input</text>
<text xml:space="preserve" text-anchor="start" x="91" y="-828.7" font-family="sans" font-size="10.00"> </text>
<text xml:space="preserve" text-anchor="start" x="34" y="-802" font-family="monospace" font-size="10.00">results/03_neb/neb.con</text>
<text xml:space="preserve" text-anchor="start" x="34" y="-780.75" font-family="monospace" font-size="10.00">results/03_neb/neb_000.dat</text>
<text xml:space="preserve" text-anchor="start" x="34" y="-759.5" font-family="monospace" font-size="10.00">results/03_neb/neb_001.dat</text>
<text xml:space="preserve" text-anchor="start" x="34" y="-738.25" font-family="monospace" font-size="10.00">results/03_neb/neb_002.dat</text>
<text xml:space="preserve" text-anchor="start" x="34" y="-717" font-family="monospace" font-size="10.00">results/03_neb/neb_003.dat</text>
<text xml:space="preserve" text-anchor="start" x="34" y="-695.75" font-family="monospace" font-size="10.00">results/03_neb/neb_004.dat</text>
<text xml:space="preserve" text-anchor="start" x="34" y="-674.5" font-family="monospace" font-size="10.00">results/03_neb/neb_005.dat</text>
<text xml:space="preserve" text-anchor="start" x="34" y="-653.25" font-family="monospace" font-size="10.00">results/03_neb/neb_006.dat</text>
<text xml:space="preserve" text-anchor="start" x="34" y="-632" font-family="monospace" font-size="10.00">results/03_neb/neb_007.dat</text>
<text xml:space="preserve" text-anchor="start" x="34" y="-610.75" font-family="monospace" font-size="10.00">results/03_neb/neb_008.dat</text>
<text xml:space="preserve" text-anchor="start" x="34" y="-589.5" font-family="monospace" font-size="10.00">results/03_neb/neb_009.dat</text>
<text xml:space="preserve" text-anchor="start" x="34" y="-568.25" font-family="monospace" font-size="10.00">results/03_neb/neb_010.dat</text>
<text xml:space="preserve" text-anchor="start" x="34" y="-547" font-family="monospace" font-size="10.00">results/03_neb/neb_011.dat</text>
<text xml:space="preserve" text-anchor="start" x="34" y="-525.75" font-family="monospace" font-size="10.00">results/03_neb/neb_012.dat</text>
<text xml:space="preserve" text-anchor="start" x="34" y="-504.5" font-family="monospace" font-size="10.00">results/03_neb/neb_013.dat</text>
<text xml:space="preserve" text-anchor="start" x="34" y="-483.25" font-family="monospace" font-size="10.00">results/03_neb/neb_014.dat</text>
<text xml:space="preserve" text-anchor="start" x="34" y="-462" font-family="monospace" font-size="10.00">results/03_neb/neb_015.dat</text>
<text xml:space="preserve" text-anchor="start" x="34" y="-440.75" font-family="monospace" font-size="10.00">results/03_neb/neb_016.dat</text>
<text xml:space="preserve" text-anchor="start" x="34" y="-419.5" font-family="monospace" font-size="10.00">results/03_neb/neb_017.dat</text>
<text xml:space="preserve" text-anchor="start" x="34" y="-398.25" font-family="monospace" font-size="10.00">results/03_neb/neb_018.dat</text>
<text xml:space="preserve" text-anchor="start" x="34" y="-377" font-family="monospace" font-size="10.00">results/03_neb/neb_019.dat</text>
<text xml:space="preserve" text-anchor="start" x="34" y="-355.75" font-family="monospace" font-size="10.00">results/03_neb/neb_020.dat</text>
<text xml:space="preserve" text-anchor="start" x="34" y="-334.5" font-family="monospace" font-size="10.00">results/03_neb/neb_021.dat</text>
<text xml:space="preserve" text-anchor="start" x="34" y="-313.25" font-family="monospace" font-size="10.00">results/03_neb/neb_022.dat</text>
<text xml:space="preserve" text-anchor="start" x="34" y="-292" font-family="monospace" font-size="10.00">results/03_neb/neb_023.dat</text>
<text xml:space="preserve" text-anchor="start" x="34" y="-270.75" font-family="monospace" font-size="10.00">results/03_neb/neb_024.dat</text>
<text xml:space="preserve" text-anchor="start" x="34" y="-249.5" font-family="monospace" font-size="10.00">results/03_neb/neb_025.dat</text>
<text xml:space="preserve" text-anchor="start" x="34" y="-228.25" font-family="monospace" font-size="10.00">results/03_neb/neb_026.dat</text>
<text xml:space="preserve" text-anchor="start" x="34" y="-207" font-family="monospace" font-size="10.00">results/03_neb/neb_027.dat</text>
<text xml:space="preserve" text-anchor="start" x="119.5" y="-182.95" font-family="sans" font-size="10.00"> </text>
<text xml:space="preserve" text-anchor="start" x="121.75" y="-182.95" font-family="sans" font-weight="bold" font-size="14.00">output →</text>
<text xml:space="preserve" text-anchor="start" x="187.75" y="-182.95" font-family="sans" font-size="10.00"> </text>
<text xml:space="preserve" text-anchor="start" x="34" y="-159.25" font-family="monospace" font-size="10.00">results/04_plots/roneb.png</text>
<polygon fill="#5791d9" stroke="#5791d9" points="28,-845 28,-845 197,-845 197,-845 28,-845"/>
<polygon fill="#5791d9" stroke="#5791d9" points="28,-199.25 28,-199.25 197,-199.25 197,-199.25 28,-199.25"/>
<polygon fill="none" stroke="#5791d9" stroke-width="2" points="28,-148.5 28,-879.5 196,-879.5 196,-148.5 28,-148.5"/>
</g>
<!-- 1&#45;&gt;0 -->
<g id="edge1" class="edge">
<title>1&#45;&gt;0</title>
<path fill="none" stroke="grey" stroke-width="2" d="M112,-147.71C112,-139.48 112,-131.64 112,-124.25"/>
<polygon fill="grey" stroke="grey" stroke-width="2" points="115.5,-124.48 112,-114.48 108.5,-124.48 115.5,-124.48"/>
</g>
<!-- 2 -->
<g id="node3" class="node">
<title>2</title>
<text xml:space="preserve" text-anchor="start" x="80.12" y="-1945.15" font-family="sans" font-weight="bold" font-size="18.00">do_neb</text>
<text xml:space="preserve" text-anchor="start" x="7" y="-1916.45" font-family="sans" font-size="10.00"> </text>
<text xml:space="preserve" text-anchor="start" x="9.25" y="-1916.45" font-family="sans" font-weight="bold" font-size="14.00">↪ input</text>
<text xml:space="preserve" text-anchor="start" x="64" y="-1916.45" font-family="sans" font-size="10.00"> </text>
<text xml:space="preserve" text-anchor="start" x="7" y="-1889.75" font-family="monospace" font-size="10.00">resources/config_neb.ini</text>
<text xml:space="preserve" text-anchor="start" x="7" y="-1868.5" font-family="monospace" font-size="10.00">results/00_models/pet&#45;mad&#45;v1.1.0.pt</text>
<text xml:space="preserve" text-anchor="start" x="7" y="-1847.25" font-family="monospace" font-size="10.00">results/02_idpp/idppPath.dat</text>
<text xml:space="preserve" text-anchor="start" x="7" y="-1826" font-family="monospace" font-size="10.00">results/02_idpp/path/00.con</text>
<text xml:space="preserve" text-anchor="start" x="7" y="-1804.75" font-family="monospace" font-size="10.00">results/02_idpp/path/01.con</text>
<text xml:space="preserve" text-anchor="start" x="7" y="-1783.5" font-family="monospace" font-size="10.00">results/02_idpp/path/02.con</text>
<text xml:space="preserve" text-anchor="start" x="7" y="-1762.25" font-family="monospace" font-size="10.00">results/02_idpp/path/03.con</text>
<text xml:space="preserve" text-anchor="start" x="7" y="-1741" font-family="monospace" font-size="10.00">results/02_idpp/path/04.con</text>
<text xml:space="preserve" text-anchor="start" x="7" y="-1719.75" font-family="monospace" font-size="10.00">results/02_idpp/path/05.con</text>
<text xml:space="preserve" text-anchor="start" x="7" y="-1698.5" font-family="monospace" font-size="10.00">results/02_idpp/path/06.con</text>
<text xml:space="preserve" text-anchor="start" x="7" y="-1677.25" font-family="monospace" font-size="10.00">results/02_idpp/path/07.con</text>
<text xml:space="preserve" text-anchor="start" x="7" y="-1656" font-family="monospace" font-size="10.00">results/02_idpp/path/08.con</text>
<text xml:space="preserve" text-anchor="start" x="7" y="-1634.75" font-family="monospace" font-size="10.00">results/02_idpp/path/09.con</text>
<text xml:space="preserve" text-anchor="start" x="7" y="-1613.5" font-family="monospace" font-size="10.00">results/02_idpp/path/10.con</text>
<text xml:space="preserve" text-anchor="start" x="7" y="-1592.25" font-family="monospace" font-size="10.00">results/02_idpp/path/11.con</text>
<text xml:space="preserve" text-anchor="start" x="146.5" y="-1568.2" font-family="sans" font-size="10.00"> </text>
<text xml:space="preserve" text-anchor="start" x="148.75" y="-1568.2" font-family="sans" font-weight="bold" font-size="14.00">output →</text>
<text xml:space="preserve" text-anchor="start" x="214.75" y="-1568.2" font-family="sans" font-size="10.00"> </text>
<text xml:space="preserve" text-anchor="start" x="7" y="-1544.5" font-family="monospace" font-size="10.00">results/03_neb/neb.con</text>
<text xml:space="preserve" text-anchor="start" x="7" y="-1523.25" font-family="monospace" font-size="10.00">results/03_neb/neb_000.dat</text>
<text xml:space="preserve" text-anchor="start" x="7" y="-1502" font-family="monospace" font-size="10.00">results/03_neb/neb_001.dat</text>
<text xml:space="preserve" text-anchor="start" x="7" y="-1480.75" font-family="monospace" font-size="10.00">results/03_neb/neb_002.dat</text>
<text xml:space="preserve" text-anchor="start" x="7" y="-1459.5" font-family="monospace" font-size="10.00">results/03_neb/neb_003.dat</text>
<text xml:space="preserve" text-anchor="start" x="7" y="-1438.25" font-family="monospace" font-size="10.00">results/03_neb/neb_004.dat</text>
<text xml:space="preserve" text-anchor="start" x="7" y="-1417" font-family="monospace" font-size="10.00">results/03_neb/neb_005.dat</text>
<text xml:space="preserve" text-anchor="start" x="7" y="-1395.75" font-family="monospace" font-size="10.00">results/03_neb/neb_006.dat</text>
<text xml:space="preserve" text-anchor="start" x="7" y="-1374.5" font-family="monospace" font-size="10.00">results/03_neb/neb_007.dat</text>
<text xml:space="preserve" text-anchor="start" x="7" y="-1353.25" font-family="monospace" font-size="10.00">results/03_neb/neb_008.dat</text>
<text xml:space="preserve" text-anchor="start" x="7" y="-1332" font-family="monospace" font-size="10.00">results/03_neb/neb_009.dat</text>
<text xml:space="preserve" text-anchor="start" x="7" y="-1310.75" font-family="monospace" font-size="10.00">results/03_neb/neb_010.dat</text>
<text xml:space="preserve" text-anchor="start" x="7" y="-1289.5" font-family="monospace" font-size="10.00">results/03_neb/neb_011.dat</text>
<text xml:space="preserve" text-anchor="start" x="7" y="-1268.25" font-family="monospace" font-size="10.00">results/03_neb/neb_012.dat</text>
<text xml:space="preserve" text-anchor="start" x="7" y="-1247" font-family="monospace" font-size="10.00">results/03_neb/neb_013.dat</text>
<text xml:space="preserve" text-anchor="start" x="7" y="-1225.75" font-family="monospace" font-size="10.00">results/03_neb/neb_014.dat</text>
<text xml:space="preserve" text-anchor="start" x="7" y="-1204.5" font-family="monospace" font-size="10.00">results/03_neb/neb_015.dat</text>
<text xml:space="preserve" text-anchor="start" x="7" y="-1183.25" font-family="monospace" font-size="10.00">results/03_neb/neb_016.dat</text>
<text xml:space="preserve" text-anchor="start" x="7" y="-1162" font-family="monospace" font-size="10.00">results/03_neb/neb_017.dat</text>
<text xml:space="preserve" text-anchor="start" x="7" y="-1140.75" font-family="monospace" font-size="10.00">results/03_neb/neb_018.dat</text>
<text xml:space="preserve" text-anchor="start" x="7" y="-1119.5" font-family="monospace" font-size="10.00">results/03_neb/neb_019.dat</text>
<text xml:space="preserve" text-anchor="start" x="7" y="-1098.25" font-family="monospace" font-size="10.00">results/03_neb/neb_020.dat</text>
<text xml:space="preserve" text-anchor="start" x="7" y="-1077" font-family="monospace" font-size="10.00">results/03_neb/neb_021.dat</text>
<text xml:space="preserve" text-anchor="start" x="7" y="-1055.75" font-family="monospace" font-size="10.00">results/03_neb/neb_022.dat</text>
<text xml:space="preserve" text-anchor="start" x="7" y="-1034.5" font-family="monospace" font-size="10.00">results/03_neb/neb_023.dat</text>
<text xml:space="preserve" text-anchor="start" x="7" y="-1013.25" font-family="monospace" font-size="10.00">results/03_neb/neb_024.dat</text>
<text xml:space="preserve" text-anchor="start" x="7" y="-992" font-family="monospace" font-size="10.00">results/03_neb/neb_025.dat</text>
<text xml:space="preserve" text-anchor="start" x="7" y="-970.75" font-family="monospace" font-size="10.00">results/03_neb/neb_026.dat</text>
<text xml:space="preserve" text-anchor="start" x="7" y="-949.5" font-family="monospace" font-size="10.00">results/03_neb/neb_027.dat</text>
<text xml:space="preserve" text-anchor="start" x="7" y="-928.25" font-family="monospace" font-size="10.00">results/03_neb/results.dat</text>
<polygon fill="#57d974" stroke="#57d974" points="1,-1932.75 1,-1932.75 224,-1932.75 224,-1932.75 1,-1932.75"/>
<polygon fill="#57d974" stroke="#57d974" points="1,-1584.5 1,-1584.5 224,-1584.5 224,-1584.5 1,-1584.5"/>
<polygon fill="none" stroke="#57d974" stroke-width="2" points="1,-917.5 1,-1967.25 223,-1967.25 223,-917.5 1,-917.5"/>
</g>
<!-- 2&#45;&gt;1 -->
<g id="edge2" class="edge">
<title>2&#45;&gt;1</title>
<path fill="none" stroke="grey" stroke-width="2" d="M112,-916.61C112,-908.81 112,-901.05 112,-893.31"/>
<polygon fill="grey" stroke="grey" stroke-width="2" points="115.5,-893.35 112,-883.35 108.5,-893.35 115.5,-893.35"/>
</g>
<!-- 3 -->
<g id="node4" class="node">
<title>3</title>
<text xml:space="preserve" text-anchor="start" x="146.75" y="-2352.9" font-family="sans" font-weight="bold" font-size="18.00">__ase_idpp_collect_paths</text>
<text xml:space="preserve" text-anchor="start" x="146.75" y="-2324.2" font-family="sans" font-size="10.00"> </text>
<text xml:space="preserve" text-anchor="start" x="149" y="-2324.2" font-family="sans" font-weight="bold" font-size="14.00">↪ input</text>
<text xml:space="preserve" text-anchor="start" x="203.75" y="-2324.2" font-family="sans" font-size="10.00"> </text>
<text xml:space="preserve" text-anchor="start" x="146.75" y="-2297.5" font-family="monospace" font-size="10.00">results/02_idpp/path/00.con</text>
<text xml:space="preserve" text-anchor="start" x="146.75" y="-2276.25" font-family="monospace" font-size="10.00">results/02_idpp/path/01.con</text>
<text xml:space="preserve" text-anchor="start" x="146.75" y="-2255" font-family="monospace" font-size="10.00">results/02_idpp/path/02.con</text>
<text xml:space="preserve" text-anchor="start" x="146.75" y="-2233.75" font-family="monospace" font-size="10.00">results/02_idpp/path/03.con</text>
<text xml:space="preserve" text-anchor="start" x="146.75" y="-2212.5" font-family="monospace" font-size="10.00">results/02_idpp/path/04.con</text>
<text xml:space="preserve" text-anchor="start" x="146.75" y="-2191.25" font-family="monospace" font-size="10.00">results/02_idpp/path/05.con</text>
<text xml:space="preserve" text-anchor="start" x="146.75" y="-2170" font-family="monospace" font-size="10.00">results/02_idpp/path/06.con</text>
<text xml:space="preserve" text-anchor="start" x="146.75" y="-2148.75" font-family="monospace" font-size="10.00">results/02_idpp/path/07.con</text>
<text xml:space="preserve" text-anchor="start" x="146.75" y="-2127.5" font-family="monospace" font-size="10.00">results/02_idpp/path/08.con</text>
<text xml:space="preserve" text-anchor="start" x="146.75" y="-2106.25" font-family="monospace" font-size="10.00">results/02_idpp/path/09.con</text>
<text xml:space="preserve" text-anchor="start" x="146.75" y="-2085" font-family="monospace" font-size="10.00">results/02_idpp/path/10.con</text>
<text xml:space="preserve" text-anchor="start" x="146.75" y="-2063.75" font-family="monospace" font-size="10.00">results/02_idpp/path/11.con</text>
<text xml:space="preserve" text-anchor="start" x="290.75" y="-2039.7" font-family="sans" font-size="10.00"> </text>
<text xml:space="preserve" text-anchor="start" x="293" y="-2039.7" font-family="sans" font-weight="bold" font-size="14.00">output →</text>
<text xml:space="preserve" text-anchor="start" x="359" y="-2039.7" font-family="sans" font-size="10.00"> </text>
<text xml:space="preserve" text-anchor="start" x="146.75" y="-2016" font-family="monospace" font-size="10.00">results/02_idpp/idppPath.dat</text>
<polygon fill="#d95757" stroke="#d95757" points="140.75,-2340.5 140.75,-2340.5 368.25,-2340.5 368.25,-2340.5 140.75,-2340.5"/>
<polygon fill="#d95757" stroke="#d95757" points="140.75,-2056 140.75,-2056 368.25,-2056 368.25,-2056 140.75,-2056"/>
<polygon fill="none" stroke="#d95757" stroke-width="2" points="140.75,-2005.25 140.75,-2375 367.25,-2375 367.25,-2005.25 140.75,-2005.25"/>
</g>
<!-- 3&#45;&gt;2 -->
<g id="edge5" class="edge">
<title>3&#45;&gt;2</title>
<path fill="none" stroke="grey" stroke-width="2" d="M218.81,-2004.3C217.34,-1996.59 215.84,-1988.73 214.32,-1980.75"/>
<polygon fill="grey" stroke="grey" stroke-width="2" points="217.79,-1980.24 212.48,-1971.07 210.91,-1981.55 217.79,-1980.24"/>
</g>
<!-- 4 -->
<g id="node5" class="node">
<title>4</title>
<text xml:space="preserve" text-anchor="start" x="105.5" y="-2781.9" font-family="sans" font-weight="bold" font-size="18.00">__ase_idpp_generate_idpp_images</text>
<text xml:space="preserve" text-anchor="start" x="105.5" y="-2753.2" font-family="sans" font-size="10.00"> </text>
<text xml:space="preserve" text-anchor="start" x="107.75" y="-2753.2" font-family="sans" font-weight="bold" font-size="14.00">↪ input</text>
<text xml:space="preserve" text-anchor="start" x="162.5" y="-2753.2" font-family="sans" font-size="10.00"> </text>
<text xml:space="preserve" text-anchor="start" x="105.5" y="-2726.5" font-family="monospace" font-size="10.00">results/01_endpoints/product.con</text>
<text xml:space="preserve" text-anchor="start" x="105.5" y="-2705.25" font-family="monospace" font-size="10.00">results/01_endpoints/reactant.con</text>
<text xml:space="preserve" text-anchor="start" x="332" y="-2681.2" font-family="sans" font-size="10.00"> </text>
<text xml:space="preserve" text-anchor="start" x="334.25" y="-2681.2" font-family="sans" font-weight="bold" font-size="14.00">output →</text>
<text xml:space="preserve" text-anchor="start" x="400.25" y="-2681.2" font-family="sans" font-size="10.00"> </text>
<text xml:space="preserve" text-anchor="start" x="105.5" y="-2657.5" font-family="monospace" font-size="10.00">results/02_idpp/path/00.con</text>
<text xml:space="preserve" text-anchor="start" x="105.5" y="-2636.25" font-family="monospace" font-size="10.00">results/02_idpp/path/01.con</text>
<text xml:space="preserve" text-anchor="start" x="105.5" y="-2615" font-family="monospace" font-size="10.00">results/02_idpp/path/02.con</text>
<text xml:space="preserve" text-anchor="start" x="105.5" y="-2593.75" font-family="monospace" font-size="10.00">results/02_idpp/path/03.con</text>
<text xml:space="preserve" text-anchor="start" x="105.5" y="-2572.5" font-family="monospace" font-size="10.00">results/02_idpp/path/04.con</text>
<text xml:space="preserve" text-anchor="start" x="105.5" y="-2551.25" font-family="monospace" font-size="10.00">results/02_idpp/path/05.con</text>
<text xml:space="preserve" text-anchor="start" x="105.5" y="-2530" font-family="monospace" font-size="10.00">results/02_idpp/path/06.con</text>
<text xml:space="preserve" text-anchor="start" x="105.5" y="-2508.75" font-family="monospace" font-size="10.00">results/02_idpp/path/07.con</text>
<text xml:space="preserve" text-anchor="start" x="105.5" y="-2487.5" font-family="monospace" font-size="10.00">results/02_idpp/path/08.con</text>
<text xml:space="preserve" text-anchor="start" x="105.5" y="-2466.25" font-family="monospace" font-size="10.00">results/02_idpp/path/09.con</text>
<text xml:space="preserve" text-anchor="start" x="105.5" y="-2445" font-family="monospace" font-size="10.00">results/02_idpp/path/10.con</text>
<text xml:space="preserve" text-anchor="start" x="105.5" y="-2423.75" font-family="monospace" font-size="10.00">results/02_idpp/path/11.con</text>
<polygon fill="#d99157" stroke="#d99157" points="99.5,-2769.5 99.5,-2769.5 409.5,-2769.5 409.5,-2769.5 99.5,-2769.5"/>
<polygon fill="#d99157" stroke="#d99157" points="99.5,-2697.5 99.5,-2697.5 409.5,-2697.5 409.5,-2697.5 99.5,-2697.5"/>
<polygon fill="none" stroke="#d99157" stroke-width="2" points="99.5,-2413 99.5,-2804 408.5,-2804 408.5,-2413 99.5,-2413"/>
</g>
<!-- 4&#45;&gt;2 -->
<g id="edge3" class="edge">
<title>4&#45;&gt;2</title>
<path fill="none" stroke="grey" stroke-width="2" d="M142.36,-2412.06C137.97,-2400.07 134.12,-2388 131,-2376 110.94,-2298.86 103.5,-2143.15 101.94,-1980.7"/>
<polygon fill="grey" stroke="grey" stroke-width="2" points="105.44,-1980.99 101.85,-1971.02 98.44,-1981.05 105.44,-1980.99"/>
</g>
<!-- 4&#45;&gt;3 -->
<g id="edge6" class="edge">
<title>4&#45;&gt;3</title>
<path fill="none" stroke="grey" stroke-width="2" d="M254,-2412.11C254,-2404.4 254,-2396.66 254,-2388.94"/>
<polygon fill="grey" stroke="grey" stroke-width="2" points="257.5,-2389 254,-2379 250.5,-2389 257.5,-2389"/>
</g>
<!-- 5 -->
<g id="node6" class="node">
<title>5</title>
<text xml:space="preserve" text-anchor="start" x="158.12" y="-2998.4" font-family="sans" font-weight="bold" font-size="18.00">do_minimization</text>
<text xml:space="preserve" text-anchor="start" x="127" y="-2969.7" font-family="sans" font-size="10.00"> </text>
<text xml:space="preserve" text-anchor="start" x="129.25" y="-2969.7" font-family="sans" font-weight="bold" font-size="14.00">↪ input</text>
<text xml:space="preserve" text-anchor="start" x="184" y="-2969.7" font-family="sans" font-size="10.00"> </text>
<text xml:space="preserve" text-anchor="start" x="127" y="-2943" font-family="monospace" font-size="10.00">resources/config_minim.ini</text>
<text xml:space="preserve" text-anchor="start" x="127" y="-2921.75" font-family="monospace" font-size="10.00">resources/{endpoint}.con</text>
<text xml:space="preserve" text-anchor="start" x="127" y="-2900.5" font-family="monospace" font-size="10.00">results/00_models/pet&#45;mad&#45;v1.1.0.pt</text>
<text xml:space="preserve" text-anchor="start" x="266.5" y="-2876.45" font-family="sans" font-size="10.00"> </text>
<text xml:space="preserve" text-anchor="start" x="268.75" y="-2876.45" font-family="sans" font-weight="bold" font-size="14.00">output →</text>
<text xml:space="preserve" text-anchor="start" x="334.75" y="-2876.45" font-family="sans" font-size="10.00"> </text>
<text xml:space="preserve" text-anchor="start" x="127" y="-2852.75" font-family="monospace" font-size="10.00">results/01_endpoints/{endpoint}.con</text>
<polygon fill="#74d957" stroke="#74d957" points="121,-2986 121,-2986 344,-2986 344,-2986 121,-2986"/>
<polygon fill="#74d957" stroke="#74d957" points="121,-2892.75 121,-2892.75 344,-2892.75 344,-2892.75 121,-2892.75"/>
<polygon fill="none" stroke="#74d957" stroke-width="2" points="121,-2842 121,-3020.5 343,-3020.5 343,-2842 121,-2842"/>
</g>
<!-- 5&#45;&gt;4 -->
<g id="edge7" class="edge">
<title>5&#45;&gt;4</title>
<path fill="none" stroke="grey" stroke-width="2" d="M238.1,-2841.33C238.62,-2833.66 239.17,-2825.73 239.73,-2817.61"/>
<polygon fill="grey" stroke="grey" stroke-width="2" points="243.21,-2817.95 240.4,-2807.74 236.23,-2817.47 243.21,-2817.95"/>
</g>
<!-- 6 -->
<g id="node7" class="node">
<title>6</title>
<text xml:space="preserve" text-anchor="start" x="56" y="-3172.4" font-family="sans" font-weight="bold" font-size="18.00">convert_ckpt_to_pt</text>
<text xml:space="preserve" text-anchor="start" x="20" y="-3143.7" font-family="sans" font-size="10.00"> </text>
<text xml:space="preserve" text-anchor="start" x="22.25" y="-3143.7" font-family="sans" font-weight="bold" font-size="14.00">↪ input</text>
<text xml:space="preserve" text-anchor="start" x="77" y="-3143.7" font-family="sans" font-size="10.00"> </text>
<text xml:space="preserve" text-anchor="start" x="20" y="-3117" font-family="monospace" font-size="10.00">results/00_models/pet&#45;mad&#45;{version}.ckpt</text>
<text xml:space="preserve" text-anchor="start" x="189.5" y="-3092.95" font-family="sans" font-size="10.00"> </text>
<text xml:space="preserve" text-anchor="start" x="191.75" y="-3092.95" font-family="sans" font-weight="bold" font-size="14.00">output →</text>
<text xml:space="preserve" text-anchor="start" x="257.75" y="-3092.95" font-family="sans" font-size="10.00"> </text>
<text xml:space="preserve" text-anchor="start" x="20" y="-3069.25" font-family="monospace" font-size="10.00">results/00_models/pet&#45;mad&#45;{version}.pt</text>
<polygon fill="#add957" stroke="#add957" points="14,-3160 14,-3160 267,-3160 267,-3160 14,-3160"/>
<polygon fill="#add957" stroke="#add957" points="14,-3109.25 14,-3109.25 267,-3109.25 267,-3109.25 14,-3109.25"/>
<polygon fill="none" stroke="#add957" stroke-width="2" points="14,-3058.5 14,-3194.5 266,-3194.5 266,-3058.5 14,-3058.5"/>
</g>
<!-- 6&#45;&gt;2 -->
<g id="edge4" class="edge">
<title>6&#45;&gt;2</title>
<path fill="none" stroke="grey" stroke-width="2" d="M119.29,-3057.64C116.15,-3045.68 113.23,-3033.29 111,-3021.5 93.06,-2926.46 93.9,-2901.59 89,-2805 75.25,-2533.75 78.48,-2231.75 86.21,-1981.22"/>
<polygon fill="grey" stroke="grey" stroke-width="2" points="89.7,-1981.33 86.52,-1971.23 82.71,-1981.11 89.7,-1981.33"/>
</g>
<!-- 6&#45;&gt;5 -->
<g id="edge8" class="edge">
<title>6&#45;&gt;5</title>
<path fill="none" stroke="grey" stroke-width="2" d="M172.31,-3057.64C176.11,-3049.66 180.04,-3041.38 184,-3033.07"/>
<polygon fill="grey" stroke="grey" stroke-width="2" points="187.16,-3034.58 188.3,-3024.05 180.84,-3031.57 187.16,-3034.58"/>
</g>
<!-- 7 -->
<g id="node8" class="node">
<title>7</title>
<text xml:space="preserve" text-anchor="start" x="72.5" y="-3316.9" font-family="sans" font-weight="bold" font-size="18.00">download_ckpt</text>
<text xml:space="preserve" text-anchor="start" x="20" y="-3291" font-family="sans" font-size="10.00"> &#160;</text>
<text xml:space="preserve" text-anchor="start" x="189.5" y="-3266.95" font-family="sans" font-size="10.00"> </text>
<text xml:space="preserve" text-anchor="start" x="191.75" y="-3266.95" font-family="sans" font-weight="bold" font-size="14.00">output →</text>
<text xml:space="preserve" text-anchor="start" x="257.75" y="-3266.95" font-family="sans" font-size="10.00"> </text>
<text xml:space="preserve" text-anchor="start" x="20" y="-3243.25" font-family="monospace" font-size="10.00">results/00_models/pet&#45;mad&#45;{version}.ckpt</text>
<polygon fill="#57d9ad" stroke="#57d9ad" points="14,-3304.5 14,-3304.5 267,-3304.5 267,-3304.5 14,-3304.5"/>
<polygon fill="#57d9ad" stroke="#57d9ad" points="14,-3283.25 14,-3283.25 267,-3283.25 267,-3283.25 14,-3283.25"/>
<polygon fill="none" stroke="#57d9ad" stroke-width="2" points="14,-3232.5 14,-3339 266,-3339 266,-3232.5 14,-3232.5"/>
</g>
<!-- 7&#45;&gt;6 -->
<g id="edge9" class="edge">
<title>7&#45;&gt;6</title>
<path fill="none" stroke="grey" stroke-width="2" d="M140,-3231.51C140,-3224 140,-3216.14 140,-3208.26"/>
<polygon fill="grey" stroke="grey" stroke-width="2" points="143.5,-3208.48 140,-3198.48 136.5,-3208.48 143.5,-3208.48"/>
</g>
</g>
</svg>
