<?xml version="1.0" encoding="UTF-8" standalone="no"?>
<!DOCTYPE svg PUBLIC "-//W3C//DTD SVG 1.1//EN"
 "http://www.w3.org/Graphics/SVG/1.1/DTD/svg11.dtd">
<!-- Generated by graphviz version 13.1.1 (0)
 -->
<!-- Title: snakemake_dag Pages: 1 -->
<svg width="227pt" height="548pt"
 viewBox="0.00 0.00 227.00 548.00" xmlns="http://www.w3.org/2000/svg" xmlns:xlink="http://www.w3.org/1999/xlink">
<g id="graph0" class="graph" transform="scale(1 1) rotate(0) translate(4 544)">
<title>snakemake_dag</title>
<polygon fill="white" stroke="none" points="-4,4 -4,-544 222.75,-544 222.75,4 -4,4"/>
<!-- 0 -->
<g id="node1" class="node">
<title>0</title>
<path fill="none" stroke="#d8cb56" stroke-width="2" d="M68.25,-36C68.25,-36 38.25,-36 38.25,-36 32.25,-36 26.25,-30 26.25,-24 26.25,-24 26.25,-12 26.25,-12 26.25,-6 32.25,0 38.25,0 38.25,0 68.25,0 68.25,0 74.25,0 80.25,-6 80.25,-12 80.25,-12 80.25,-24 80.25,-24 80.25,-30 74.25,-36 68.25,-36"/>
<text xml:space="preserve" text-anchor="middle" x="53.25" y="-15.62" font-family="sans" font-size="10.00">all</text>
</g>
<!-- 1 -->
<g id="node2" class="node">
<title>1</title>
<path fill="none" stroke="#5692d8" stroke-width="2" d="M82.25,-108C82.25,-108 24.25,-108 24.25,-108 18.25,-108 12.25,-102 12.25,-96 12.25,-96 12.25,-84 12.25,-84 12.25,-78 18.25,-72 24.25,-72 24.25,-72 82.25,-72 82.25,-72 88.25,-72 94.25,-78 94.25,-84 94.25,-84 94.25,-96 94.25,-96 94.25,-102 88.25,-108 82.25,-108"/>
<text xml:space="preserve" text-anchor="middle" x="53.25" y="-87.62" font-family="sans" font-size="10.00">plot_neb_path</text>
</g>
<!-- 1&#45;&gt;0 -->
<g id="edge1" class="edge">
<title>1&#45;&gt;0</title>
<path fill="none" stroke="grey" stroke-width="2" d="M53.25,-71.34C53.25,-64.75 53.25,-57.08 53.25,-49.67"/>
<polygon fill="grey" stroke="grey" stroke-width="2" points="56.75,-49.93 53.25,-39.93 49.75,-49.93 56.75,-49.93"/>
</g>
<!-- 2 -->
<g id="node3" class="node">
<title>2</title>
<path fill="none" stroke="#56d873" stroke-width="2" d="M68.25,-180C68.25,-180 38.25,-180 38.25,-180 32.25,-180 26.25,-174 26.25,-168 26.25,-168 26.25,-156 26.25,-156 26.25,-150 32.25,-144 38.25,-144 38.25,-144 68.25,-144 68.25,-144 74.25,-144 80.25,-150 80.25,-156 80.25,-156 80.25,-168 80.25,-168 80.25,-174 74.25,-180 68.25,-180"/>
<text xml:space="preserve" text-anchor="middle" x="53.25" y="-159.62" font-family="sans" font-size="10.00">do_neb</text>
</g>
<!-- 2&#45;&gt;1 -->
<g id="edge2" class="edge">
<title>2&#45;&gt;1</title>
<path fill="none" stroke="grey" stroke-width="2" d="M53.25,-143.34C53.25,-136.75 53.25,-129.08 53.25,-121.67"/>
<polygon fill="grey" stroke="grey" stroke-width="2" points="56.75,-121.93 53.25,-111.93 49.75,-121.93 56.75,-121.93"/>
</g>
<!-- 3 -->
<g id="node4" class="node">
<title>3</title>
<path fill="none" stroke="#d85656" stroke-width="2" d="M198.88,-252C198.88,-252 93.62,-252 93.62,-252 87.62,-252 81.62,-246 81.62,-240 81.62,-240 81.62,-228 81.62,-228 81.62,-222 87.62,-216 93.62,-216 93.62,-216 198.88,-216 198.88,-216 204.88,-216 210.88,-222 210.88,-228 210.88,-228 210.88,-240 210.88,-240 210.88,-246 204.88,-252 198.88,-252"/>
<text xml:space="preserve" text-anchor="middle" x="146.25" y="-231.62" font-family="sans" font-size="10.00">__ase_idpp_collect_paths</text>
</g>
<!-- 3&#45;&gt;2 -->
<g id="edge5" class="edge">
<title>3&#45;&gt;2</title>
<path fill="none" stroke="grey" stroke-width="2" d="M122.78,-215.34C112.07,-207.27 99.18,-197.57 87.42,-188.72"/>
<polygon fill="grey" stroke="grey" stroke-width="2" points="89.55,-185.94 79.45,-182.72 85.34,-191.53 89.55,-185.94"/>
</g>
<!-- 4 -->
<g id="node5" class="node">
<title>4</title>
<path fill="none" stroke="#d88d56" stroke-width="2" d="M206.75,-324C206.75,-324 55.75,-324 55.75,-324 49.75,-324 43.75,-318 43.75,-312 43.75,-312 43.75,-300 43.75,-300 43.75,-294 49.75,-288 55.75,-288 55.75,-288 206.75,-288 206.75,-288 212.75,-288 218.75,-294 218.75,-300 218.75,-300 218.75,-312 218.75,-312 218.75,-318 212.75,-324 206.75,-324"/>
<text xml:space="preserve" text-anchor="middle" x="131.25" y="-303.62" font-family="sans" font-size="10.00">__ase_idpp_generate_idpp_images</text>
</g>
<!-- 4&#45;&gt;2 -->
<g id="edge4" class="edge">
<title>4&#45;&gt;2</title>
<path fill="none" stroke="grey" stroke-width="2" d="M104.79,-287.19C93.11,-278 80.25,-265.82 72.25,-252 61.97,-234.24 57.23,-211.59 55.06,-193.58"/>
<polygon fill="grey" stroke="grey" stroke-width="2" points="58.57,-193.51 54.13,-183.89 51.6,-194.18 58.57,-193.51"/>
</g>
<!-- 4&#45;&gt;3 -->
<g id="edge6" class="edge">
<title>4&#45;&gt;3</title>
<path fill="none" stroke="grey" stroke-width="2" d="M135.04,-287.34C136.46,-280.67 138.13,-272.89 139.74,-265.39"/>
<polygon fill="grey" stroke="grey" stroke-width="2" points="143.11,-266.37 141.78,-255.86 136.26,-264.91 143.11,-266.37"/>
</g>
<!-- 5 -->
<g id="node6" class="node">
<title>5</title>
<path fill="none" stroke="#70d856" stroke-width="2" d="M143.75,-396C143.75,-396 76.75,-396 76.75,-396 70.75,-396 64.75,-390 64.75,-384 64.75,-384 64.75,-372 64.75,-372 64.75,-366 70.75,-360 76.75,-360 76.75,-360 143.75,-360 143.75,-360 149.75,-360 155.75,-366 155.75,-372 155.75,-372 155.75,-384 155.75,-384 155.75,-390 149.75,-396 143.75,-396"/>
<text xml:space="preserve" text-anchor="middle" x="110.25" y="-375.62" font-family="sans" font-size="10.00">do_minimization</text>
</g>
<!-- 5&#45;&gt;4 -->
<g id="edge7" class="edge">
<title>5&#45;&gt;4</title>
<path fill="none" stroke="grey" stroke-width="2" d="M115.55,-359.34C117.57,-352.59 119.94,-344.69 122.22,-337.11"/>
<polygon fill="grey" stroke="grey" stroke-width="2" points="125.49,-338.39 125.01,-327.8 118.78,-336.37 125.49,-338.39"/>
</g>
<!-- 6 -->
<g id="node7" class="node">
<title>6</title>
<path fill="none" stroke="#afd856" stroke-width="2" d="M92.5,-468C92.5,-468 12,-468 12,-468 6,-468 0,-462 0,-456 0,-456 0,-444 0,-444 0,-438 6,-432 12,-432 12,-432 92.5,-432 92.5,-432 98.5,-432 104.5,-438 104.5,-444 104.5,-444 104.5,-456 104.5,-456 104.5,-462 98.5,-468 92.5,-468"/>
<text xml:space="preserve" text-anchor="middle" x="52.25" y="-447.62" font-family="sans" font-size="10.00">convert_ckpt_to_pt</text>
</g>
<!-- 6&#45;&gt;2 -->
<g id="edge3" class="edge">
<title>6&#45;&gt;2</title>
<path fill="none" stroke="grey" stroke-width="2" d="M48.06,-431.17C41.6,-401.52 30.31,-340.16 34.25,-288 36.71,-255.5 42.71,-218.64 47.31,-193.42"/>
<polygon fill="grey" stroke="grey" stroke-width="2" points="50.74,-194.15 49.14,-183.68 43.85,-192.86 50.74,-194.15"/>
</g>
<!-- 6&#45;&gt;5 -->
<g id="edge8" class="edge">
<title>6&#45;&gt;5</title>
<path fill="none" stroke="grey" stroke-width="2" d="M66.89,-431.34C73.02,-423.93 80.3,-415.14 87.13,-406.9"/>
<polygon fill="grey" stroke="grey" stroke-width="2" points="89.8,-409.17 93.49,-399.23 84.41,-404.7 89.8,-409.17"/>
</g>
<!-- 7 -->
<g id="node8" class="node">
<title>7</title>
<path fill="none" stroke="#56d8a9" stroke-width="2" d="M82.75,-540C82.75,-540 21.75,-540 21.75,-540 15.75,-540 9.75,-534 9.75,-528 9.75,-528 9.75,-516 9.75,-516 9.75,-510 15.75,-504 21.75,-504 21.75,-504 82.75,-504 82.75,-504 88.75,-504 94.75,-510 94.75,-516 94.75,-516 94.75,-528 94.75,-528 94.75,-534 88.75,-540 82.75,-540"/>
<text xml:space="preserve" text-anchor="middle" x="52.25" y="-519.62" font-family="sans" font-size="10.00">download_ckpt</text>
</g>
<!-- 7&#45;&gt;6 -->
<g id="edge9" class="edge">
<title>7&#45;&gt;6</title>
<path fill="none" stroke="grey" stroke-width="2" d="M52.25,-503.34C52.25,-496.75 52.25,-489.08 52.25,-481.67"/>
<polygon fill="grey" stroke="grey" stroke-width="2" points="55.75,-481.93 52.25,-471.93 48.75,-481.93 55.75,-481.93"/>
</g>
</g>
</svg>
